<?xml version="1.0" encoding="UTF-8"?>
<svg id="Layer_1" xmlns="http://www.w3.org/2000/svg" version="1.1" viewBox="0 0 20 20">
  <!-- Generator: Adobe Illustrator 29.5.0, SVG Export Plug-In . SVG Version: 2.1.0 Build 137)  -->
  <path d="M10,20c-1.4,0-2.7-.3-3.9-.8s-2.3-1.2-3.2-2.1-1.6-2-2.1-3.2-.8-2.5-.8-3.9.3-2.7.8-3.9,1.2-2.3,2.1-3.2,2-1.6,3.2-2.1,2.5-.8,3.9-.8,2.7.3,3.9.8,2.3,1.2,3.2,2.1,1.6,2,2.1,3.2.8,2.5.8,3.9v1.5c0,1-.3,1.8-1,2.5s-1.5,1-2.5,1-1.1-.1-1.7-.4-1-.6-1.3-1.1c-.5.5-1,.8-1.6,1.1s-1.2.4-1.9.4c-1.4,0-2.6-.5-3.5-1.5s-1.5-2.2-1.5-3.5.5-2.6,1.5-3.5,2.2-1.5,3.5-1.5,2.6.5,3.5,1.5,1.5,2.2,1.5,3.5v1.5c0,.4.1.8.4,1.1s.6.5,1.1.5.8-.2,1.1-.5.4-.7.4-1.1v-1.5c0-2.2-.8-4.1-2.3-5.7s-3.4-2.3-5.7-2.3-4.1.8-5.7,2.3-2.3,3.4-2.3,5.7.8,4.1,2.3,5.7,3.4,2.3,5.7,2.3h5v2h-5ZM10,13c.8,0,1.5-.3,2.1-.9s.9-1.3.9-2.1-.3-1.5-.9-2.1-1.3-.9-2.1-.9-1.5.3-2.1.9-.9,1.3-.9,2.1.3,1.5.9,2.1,1.3.9,2.1.9Z"/>
</svg>