<?xml version="1.0" encoding="UTF-8"?>
<svg id="Layer_1" xmlns="http://www.w3.org/2000/svg" version="1.1" viewBox="0 0 925 341">
  <!-- Generator: Adobe Illustrator 29.5.0, SVG Export Plug-In . SVG Version: 2.1.0 Build 137)  -->
  <path d="M158.8,329.3l-70.3-133.1c-3-5.6-11-5.7-14.1-.1L1.5,329.2c-2.9,5.3.9,11.8,7,11.8h143.2c6,0,9.9-6.4,7.1-11.7ZM62.9,321.9h-27c-3.1,0-5-3.3-3.5-6l13.7-24.3c1.5-2.7,5.5-2.7,7,0l13.2,24.3c1.5,2.7-.5,5.9-3.5,5.9h0Z"/>
  <path d="M801.8,140.3L732,8.1c-3-5.6-11-5.7-14.1-.1l-72.4,132.1c-2.9,5.3.9,11.8,7,11.8h142.2c6,0,9.9-6.4,7.1-11.7h0ZM705.9,134.9h-27c-3.1,0-5-3.3-3.5-6l13.7-24.3c1.5-2.7,5.5-2.7,7,0l13.2,24.3c1.5,2.7-.5,5.9-3.5,5.9h0Z"/>
  <path d="M675.5,341h-39.4l-44.6-61.6h-3.5v61.6h-33.2v-149.6h61c9.9,0,18.6,1.9,26.1,5.7,7.5,3.7,13.3,8.8,17.6,15.5,4.2,6.6,6.4,14.3,6.4,22.9s-2.1,16.5-6.4,23.1c-4.2,6.5-10.2,11.6-17.8,15.2-4.3,2-8.9,3.5-14,4.4l47.9,62.7h0Z"/>
  <polygon points="531.8 312.2 531.8 341 424.4 341 424.4 191.4 530.8 191.4 530.8 220 457.7 220 457.7 250.8 524.4 250.8 524.4 278.5 457.7 278.5 457.7 312.2 531.8 312.2"/>
  <polygon points="405.9 191.4 405.9 220.5 359 220.5 359 341 325.8 341 325.8 220.5 279 220.5 279 191.4 405.9 191.4"/>
  <polygon points="285.5 311.8 285.5 341 185.9 341 185.9 191.4 219.2 191.4 219.2 311.8 285.5 311.8"/>
  <path d="M867.6,154.4c-12.3,0-22.9-2-31.8-5.9-8.8-4.1-16.8-10.2-24.2-18.4l21.6-21.4c4.8,5.5,10.1,9.8,15.9,12.9,5.9,3,12.8,4.4,20.5,4.4s12.5-1.3,16.3-3.8c4-2.5,5.9-6.1,5.9-10.6s-1.3-7.4-3.8-10-5.9-4.7-10.2-6.6c-4.1-1.8-8.7-3.6-13.8-5.3-4.9-1.7-9.9-3.6-14.8-5.7-4.9-2.3-9.5-5-13.8-8.3-4.1-3.4-7.4-7.6-10-12.5-2.5-5.1-3.8-11.4-3.8-19.1s2.2-17.1,6.6-23.7c4.5-6.6,10.7-11.7,18.6-15,7.9-3.5,17-5.3,27.3-5.3s20,1.8,28.6,5.5c8.8,3.7,16,8.7,21.6,15l-21.6,21.4c-4.5-4.7-9.1-8.1-13.8-10.4-4.5-2.3-9.7-3.4-15.5-3.4s-10.4,1.1-13.8,3.4c-3.4,2.1-5.1,5.2-5.1,9.3s1.3,6.9,3.8,9.3c2.5,2.3,5.9,4.2,10,5.9,4.2,1.7,8.8,3.4,13.8,5.1,5.1,1.7,10.1,3.7,15,5.9,4.9,2.3,9.5,5.2,13.6,8.7,4.2,3.4,7.6,7.8,10.2,13.1,2.5,5.2,3.8,11.7,3.8,19.5,0,14.3-5.1,25.5-15.3,33.7-10.2,8.1-24.2,12.1-42.2,12.1l.4.2Z"/>
  <polygon points="624 2.5 624 152.1 590.8 152.1 590.8 69.4 558.4 119.9 536.3 119.9 503.9 69.1 503.9 152.1 470.9 152.1 470.9 2.5 494.6 2.5 547.5 84.8 600.1 2.5 624 2.5"/>
  <path d="M449.8,77.3c0,10.9-2,21-5.9,30.5-4,9.3-9.5,17.5-16.5,24.6-7.1,6.9-15.4,12.4-25,16.3-9.5,4-19.7,5.9-30.7,5.9s-21.8-2-31.3-5.9c-9.5-4-17.8-9.5-25-16.5s-12.8-15.2-16.7-24.6c-4-9.5-5.9-19.6-5.9-30.5s2-21.2,5.9-30.5c4-9.3,9.5-17.5,16.5-24.4,7.1-7.1,15.3-12.5,24.8-16.3C349.6,1.9,360.1,0,371.4,0s21.5,2,30.9,5.9c9.6,3.8,17.9,9.2,25,16.3,7.2,6.9,12.8,15.1,16.7,24.6,3.9,9.3,5.9,19.5,5.9,30.5h0Z"/>
  <polygon points="271.5 2.5 271.5 152.1 238 152.1 238 89.6 178.7 89.6 178.7 152.1 145.5 152.1 145.5 2.5 178.7 2.5 178.7 60.8 238 60.8 238 2.5 271.5 2.5"/>
  <polygon points="126.9 2.5 126.9 31.6 80.1 31.6 80.1 152.1 46.8 152.1 46.8 31.6 0 31.6 0 2.5 126.9 2.5"/>
</svg>